G75*
G70*
%OFA0B0*%
%FSLAX24Y24*%
%IPPOS*%
%LPD*%
%AMOC8*
5,1,8,0,0,1.08239X$1,22.5*
%
%ADD10C,0.0000*%
D10*
X000910Y002292D02*
X029257Y002292D01*
X029301Y002294D01*
X029344Y002300D01*
X029386Y002309D01*
X029428Y002323D01*
X029468Y002339D01*
X029506Y002360D01*
X029543Y002384D01*
X029577Y002410D01*
X029609Y002440D01*
X029638Y002473D01*
X029664Y002508D01*
X029687Y002545D01*
X029706Y002584D01*
X029722Y002624D01*
X029735Y002666D01*
X029743Y002709D01*
X029748Y002752D01*
X029749Y002796D01*
X029746Y002839D01*
X029739Y002882D01*
X029729Y002924D01*
X029714Y002965D01*
X029696Y003005D01*
X029675Y003043D01*
X029651Y003079D01*
X029650Y003080D02*
X021776Y010954D01*
X021752Y010990D01*
X021731Y011028D01*
X021713Y011068D01*
X021698Y011109D01*
X021688Y011151D01*
X021681Y011194D01*
X021678Y011237D01*
X021679Y011281D01*
X021684Y011324D01*
X021692Y011367D01*
X021705Y011409D01*
X021721Y011449D01*
X021740Y011488D01*
X021763Y011525D01*
X021789Y011560D01*
X021818Y011593D01*
X021850Y011623D01*
X021884Y011649D01*
X021921Y011673D01*
X021959Y011694D01*
X021999Y011710D01*
X022041Y011724D01*
X022083Y011733D01*
X022126Y011739D01*
X022170Y011741D01*
X027682Y011741D01*
X027726Y011743D01*
X027769Y011749D01*
X027811Y011758D01*
X027853Y011772D01*
X027893Y011788D01*
X027931Y011809D01*
X027968Y011833D01*
X028002Y011859D01*
X028034Y011889D01*
X028063Y011922D01*
X028089Y011957D01*
X028112Y011994D01*
X028131Y012033D01*
X028147Y012073D01*
X028160Y012115D01*
X028168Y012158D01*
X028173Y012201D01*
X028174Y012245D01*
X028171Y012288D01*
X028164Y012331D01*
X028154Y012373D01*
X028139Y012414D01*
X028121Y012454D01*
X028100Y012492D01*
X028076Y012528D01*
X019808Y020796D01*
X019784Y020832D01*
X019763Y020870D01*
X019745Y020910D01*
X019730Y020951D01*
X019720Y020993D01*
X019713Y021036D01*
X019710Y021079D01*
X019711Y021123D01*
X019716Y021166D01*
X019724Y021209D01*
X019737Y021251D01*
X019753Y021291D01*
X019772Y021330D01*
X019795Y021367D01*
X019821Y021402D01*
X019850Y021435D01*
X019882Y021465D01*
X019916Y021491D01*
X019953Y021515D01*
X019991Y021536D01*
X020031Y021552D01*
X020073Y021566D01*
X020115Y021575D01*
X020158Y021581D01*
X020202Y021583D01*
X020202Y021584D02*
X023745Y021584D01*
X023789Y021586D01*
X023832Y021592D01*
X023874Y021601D01*
X023916Y021615D01*
X023956Y021631D01*
X023994Y021652D01*
X024031Y021676D01*
X024065Y021702D01*
X024097Y021732D01*
X024126Y021765D01*
X024152Y021800D01*
X024175Y021837D01*
X024194Y021876D01*
X024210Y021916D01*
X024223Y021958D01*
X024231Y022001D01*
X024236Y022044D01*
X024237Y022088D01*
X024234Y022131D01*
X024227Y022174D01*
X024217Y022216D01*
X024202Y022257D01*
X024184Y022297D01*
X024163Y022335D01*
X024139Y022371D01*
X016028Y030481D01*
X016003Y030507D01*
X015976Y030531D01*
X015946Y030551D01*
X015914Y030568D01*
X015881Y030582D01*
X015846Y030593D01*
X015810Y030600D01*
X015774Y030604D01*
X015738Y030603D01*
X015702Y030600D01*
X015666Y030592D01*
X015632Y030581D01*
X015599Y030567D01*
X015567Y030549D01*
X015537Y030528D01*
X015510Y030505D01*
X015485Y030478D01*
X015463Y030449D01*
X015444Y030419D01*
X015428Y030386D01*
X015415Y030352D01*
X015406Y030317D01*
X015401Y030281D01*
X015399Y030245D01*
X015399Y016072D01*
X015397Y016038D01*
X015392Y016004D01*
X015383Y015971D01*
X015370Y015940D01*
X015354Y015910D01*
X015335Y015881D01*
X015313Y015855D01*
X015288Y015832D01*
X015261Y015811D01*
X015232Y015794D01*
X015201Y015779D01*
X015168Y015768D01*
X015135Y015761D01*
X015101Y015757D01*
X015067Y015757D01*
X015033Y015761D01*
X015000Y015768D01*
X014967Y015779D01*
X014936Y015794D01*
X014907Y015811D01*
X014880Y015832D01*
X014855Y015855D01*
X014833Y015881D01*
X014814Y015910D01*
X014798Y015940D01*
X014785Y015971D01*
X014776Y016004D01*
X014771Y016038D01*
X014769Y016072D01*
X014769Y030245D01*
X014768Y030245D02*
X014766Y030281D01*
X014761Y030317D01*
X014752Y030352D01*
X014739Y030386D01*
X014723Y030419D01*
X014704Y030449D01*
X014682Y030478D01*
X014657Y030505D01*
X014630Y030528D01*
X014600Y030549D01*
X014568Y030567D01*
X014535Y030581D01*
X014501Y030592D01*
X014465Y030600D01*
X014429Y030603D01*
X014393Y030604D01*
X014357Y030600D01*
X014321Y030593D01*
X014286Y030582D01*
X014253Y030568D01*
X014221Y030551D01*
X014191Y030531D01*
X014164Y030507D01*
X014139Y030481D01*
X006028Y022371D01*
X006004Y022335D01*
X005983Y022297D01*
X005965Y022257D01*
X005950Y022216D01*
X005940Y022174D01*
X005933Y022131D01*
X005930Y022088D01*
X005931Y022044D01*
X005936Y022001D01*
X005944Y021958D01*
X005957Y021916D01*
X005973Y021876D01*
X005992Y021837D01*
X006015Y021800D01*
X006041Y021765D01*
X006070Y021732D01*
X006102Y021702D01*
X006136Y021676D01*
X006173Y021652D01*
X006211Y021631D01*
X006251Y021615D01*
X006293Y021601D01*
X006335Y021592D01*
X006378Y021586D01*
X006422Y021584D01*
X009965Y021584D01*
X009965Y021583D02*
X010009Y021581D01*
X010052Y021575D01*
X010094Y021566D01*
X010136Y021552D01*
X010176Y021536D01*
X010214Y021515D01*
X010251Y021491D01*
X010285Y021465D01*
X010317Y021435D01*
X010346Y021402D01*
X010372Y021367D01*
X010395Y021330D01*
X010414Y021291D01*
X010430Y021251D01*
X010443Y021209D01*
X010451Y021166D01*
X010456Y021123D01*
X010457Y021079D01*
X010454Y021036D01*
X010447Y020993D01*
X010437Y020951D01*
X010422Y020910D01*
X010404Y020870D01*
X010383Y020832D01*
X010359Y020796D01*
X002091Y012528D01*
X002067Y012492D01*
X002046Y012454D01*
X002028Y012414D01*
X002013Y012373D01*
X002003Y012331D01*
X001996Y012288D01*
X001993Y012245D01*
X001994Y012201D01*
X001999Y012158D01*
X002007Y012115D01*
X002020Y012073D01*
X002036Y012033D01*
X002055Y011994D01*
X002078Y011957D01*
X002104Y011922D01*
X002133Y011889D01*
X002165Y011859D01*
X002199Y011833D01*
X002236Y011809D01*
X002274Y011788D01*
X002314Y011772D01*
X002356Y011758D01*
X002398Y011749D01*
X002441Y011743D01*
X002485Y011741D01*
X007997Y011741D01*
X008041Y011739D01*
X008084Y011733D01*
X008126Y011724D01*
X008168Y011710D01*
X008208Y011694D01*
X008246Y011673D01*
X008283Y011649D01*
X008317Y011623D01*
X008349Y011593D01*
X008378Y011560D01*
X008404Y011525D01*
X008427Y011488D01*
X008446Y011449D01*
X008462Y011409D01*
X008475Y011367D01*
X008483Y011324D01*
X008488Y011281D01*
X008489Y011237D01*
X008486Y011194D01*
X008479Y011151D01*
X008469Y011109D01*
X008454Y011068D01*
X008436Y011028D01*
X008415Y010990D01*
X008391Y010954D01*
X000517Y003080D01*
X000516Y003079D02*
X000492Y003043D01*
X000471Y003005D01*
X000453Y002965D01*
X000438Y002924D01*
X000428Y002882D01*
X000421Y002839D01*
X000418Y002796D01*
X000419Y002752D01*
X000424Y002709D01*
X000432Y002666D01*
X000445Y002624D01*
X000461Y002584D01*
X000480Y002545D01*
X000503Y002508D01*
X000529Y002473D01*
X000558Y002440D01*
X000590Y002410D01*
X000624Y002384D01*
X000661Y002360D01*
X000699Y002339D01*
X000739Y002323D01*
X000781Y002309D01*
X000823Y002300D01*
X000866Y002294D01*
X000910Y002292D01*
M02*
