%
M48
M72
T01C0.0236
T02C0.0320
T03C0.0512
%
T01
X8070Y8690
X9030Y5090
X9030Y14690
X9001Y15381
X12510Y18890
X13470Y22730
X11187Y22850
X18273Y17807
X21150Y14930
X22110Y8690
X21150Y5090
T02
X4721Y5403
X5428Y6110
X7250Y15718
X7957Y16425
X11187Y25561
X11894Y26268
X18273Y26268
X18980Y25561
X22210Y16425
X22917Y15718
X24759Y6110
X25466Y5403
T03
X19830Y3050
X19830Y10924
X10350Y10924
X10350Y3050
M30
