%
M48
M72
T01C0.0236
T02C0.0320
T03C0.0354
%
T01
X8670Y13710
X9750Y14550
X10590Y13710
X12150Y16710
X16710Y15390
X18030Y16110
X19470Y13830
X20550Y14430
X21390Y13590
X18980Y20790
T02
X4721Y3463
X5428Y4170
X7250Y13778
X7957Y14485
X11187Y23621
X11894Y24328
X18273Y24328
X18980Y23621
X22210Y14485
X22917Y13778
X24759Y4170
X25466Y3463
T03
X17790Y10070
X17790Y11070
X17790Y12070
M30
