G75*
G70*
%OFA0B0*%
%FSLAX24Y24*%
%IPPOS*%
%LPD*%
%AMOC8*
5,1,8,0,0,1.08239X$1,22.5*
%
%ADD10C,0.0000*%
D10*
X000910Y000352D02*
X014532Y000352D01*
X014533Y000352D02*
X014561Y000353D01*
X014589Y000358D01*
X014616Y000366D01*
X014642Y000378D01*
X014666Y000392D01*
X014689Y000409D01*
X014709Y000429D01*
X014726Y000451D01*
X014741Y000475D01*
X014753Y000501D01*
X014762Y000528D01*
X014767Y000556D01*
X014769Y000584D01*
X014769Y013738D01*
X014771Y013772D01*
X014776Y013806D01*
X014785Y013839D01*
X014798Y013870D01*
X014814Y013900D01*
X014833Y013929D01*
X014855Y013955D01*
X014880Y013978D01*
X014907Y013999D01*
X014936Y014016D01*
X014967Y014031D01*
X015000Y014042D01*
X015033Y014049D01*
X015067Y014053D01*
X015101Y014053D01*
X015135Y014049D01*
X015168Y014042D01*
X015201Y014031D01*
X015232Y014016D01*
X015261Y013999D01*
X015288Y013978D01*
X015313Y013955D01*
X015335Y013929D01*
X015354Y013900D01*
X015370Y013870D01*
X015383Y013839D01*
X015392Y013806D01*
X015397Y013772D01*
X015399Y013738D01*
X015399Y000584D01*
X015401Y000556D01*
X015406Y000528D01*
X015415Y000501D01*
X015427Y000475D01*
X015442Y000451D01*
X015459Y000429D01*
X015479Y000409D01*
X015502Y000392D01*
X015526Y000378D01*
X015552Y000366D01*
X015579Y000358D01*
X015607Y000353D01*
X015635Y000352D01*
X029257Y000352D01*
X029301Y000354D01*
X029344Y000360D01*
X029386Y000369D01*
X029428Y000383D01*
X029468Y000399D01*
X029506Y000420D01*
X029543Y000444D01*
X029577Y000470D01*
X029609Y000500D01*
X029638Y000533D01*
X029664Y000568D01*
X029687Y000605D01*
X029706Y000644D01*
X029722Y000684D01*
X029735Y000726D01*
X029743Y000769D01*
X029748Y000812D01*
X029749Y000856D01*
X029746Y000899D01*
X029739Y000942D01*
X029729Y000984D01*
X029714Y001025D01*
X029696Y001065D01*
X029675Y001103D01*
X029651Y001139D01*
X029650Y001140D02*
X021776Y009014D01*
X021752Y009050D01*
X021731Y009088D01*
X021713Y009128D01*
X021698Y009169D01*
X021688Y009211D01*
X021681Y009254D01*
X021678Y009297D01*
X021679Y009341D01*
X021684Y009384D01*
X021692Y009427D01*
X021705Y009469D01*
X021721Y009509D01*
X021740Y009548D01*
X021763Y009585D01*
X021789Y009620D01*
X021818Y009653D01*
X021850Y009683D01*
X021884Y009709D01*
X021921Y009733D01*
X021959Y009754D01*
X021999Y009770D01*
X022041Y009784D01*
X022083Y009793D01*
X022126Y009799D01*
X022170Y009801D01*
X027682Y009801D01*
X027726Y009803D01*
X027769Y009809D01*
X027811Y009818D01*
X027853Y009832D01*
X027893Y009848D01*
X027931Y009869D01*
X027968Y009893D01*
X028002Y009919D01*
X028034Y009949D01*
X028063Y009982D01*
X028089Y010017D01*
X028112Y010054D01*
X028131Y010093D01*
X028147Y010133D01*
X028160Y010175D01*
X028168Y010218D01*
X028173Y010261D01*
X028174Y010305D01*
X028171Y010348D01*
X028164Y010391D01*
X028154Y010433D01*
X028139Y010474D01*
X028121Y010514D01*
X028100Y010552D01*
X028076Y010588D01*
X019808Y018856D01*
X019784Y018892D01*
X019763Y018930D01*
X019745Y018970D01*
X019730Y019011D01*
X019720Y019053D01*
X019713Y019096D01*
X019710Y019139D01*
X019711Y019183D01*
X019716Y019226D01*
X019724Y019269D01*
X019737Y019311D01*
X019753Y019351D01*
X019772Y019390D01*
X019795Y019427D01*
X019821Y019462D01*
X019850Y019495D01*
X019882Y019525D01*
X019916Y019551D01*
X019953Y019575D01*
X019991Y019596D01*
X020031Y019612D01*
X020073Y019626D01*
X020115Y019635D01*
X020158Y019641D01*
X020202Y019643D01*
X020202Y019644D02*
X023745Y019644D01*
X023789Y019646D01*
X023832Y019652D01*
X023874Y019661D01*
X023916Y019675D01*
X023956Y019691D01*
X023994Y019712D01*
X024031Y019736D01*
X024065Y019762D01*
X024097Y019792D01*
X024126Y019825D01*
X024152Y019860D01*
X024175Y019897D01*
X024194Y019936D01*
X024210Y019976D01*
X024223Y020018D01*
X024231Y020061D01*
X024236Y020104D01*
X024237Y020148D01*
X024234Y020191D01*
X024227Y020234D01*
X024217Y020276D01*
X024202Y020317D01*
X024184Y020357D01*
X024163Y020395D01*
X024139Y020431D01*
X015320Y029250D01*
X015294Y029274D01*
X015266Y029294D01*
X015236Y029312D01*
X015204Y029326D01*
X015170Y029337D01*
X015136Y029344D01*
X015101Y029348D01*
X015067Y029348D01*
X015032Y029344D01*
X014998Y029337D01*
X014964Y029326D01*
X014932Y029312D01*
X014902Y029294D01*
X014874Y029274D01*
X014848Y029250D01*
X014847Y029250D02*
X006028Y020431D01*
X006004Y020395D01*
X005983Y020357D01*
X005965Y020317D01*
X005950Y020276D01*
X005940Y020234D01*
X005933Y020191D01*
X005930Y020148D01*
X005931Y020104D01*
X005936Y020061D01*
X005944Y020018D01*
X005957Y019976D01*
X005973Y019936D01*
X005992Y019897D01*
X006015Y019860D01*
X006041Y019825D01*
X006070Y019792D01*
X006102Y019762D01*
X006136Y019736D01*
X006173Y019712D01*
X006211Y019691D01*
X006251Y019675D01*
X006293Y019661D01*
X006335Y019652D01*
X006378Y019646D01*
X006422Y019644D01*
X009965Y019644D01*
X009965Y019643D02*
X010009Y019641D01*
X010052Y019635D01*
X010094Y019626D01*
X010136Y019612D01*
X010176Y019596D01*
X010214Y019575D01*
X010251Y019551D01*
X010285Y019525D01*
X010317Y019495D01*
X010346Y019462D01*
X010372Y019427D01*
X010395Y019390D01*
X010414Y019351D01*
X010430Y019311D01*
X010443Y019269D01*
X010451Y019226D01*
X010456Y019183D01*
X010457Y019139D01*
X010454Y019096D01*
X010447Y019053D01*
X010437Y019011D01*
X010422Y018970D01*
X010404Y018930D01*
X010383Y018892D01*
X010359Y018856D01*
X002091Y010588D01*
X002067Y010552D01*
X002046Y010514D01*
X002028Y010474D01*
X002013Y010433D01*
X002003Y010391D01*
X001996Y010348D01*
X001993Y010305D01*
X001994Y010261D01*
X001999Y010218D01*
X002007Y010175D01*
X002020Y010133D01*
X002036Y010093D01*
X002055Y010054D01*
X002078Y010017D01*
X002104Y009982D01*
X002133Y009949D01*
X002165Y009919D01*
X002199Y009893D01*
X002236Y009869D01*
X002274Y009848D01*
X002314Y009832D01*
X002356Y009818D01*
X002398Y009809D01*
X002441Y009803D01*
X002485Y009801D01*
X007997Y009801D01*
X008041Y009799D01*
X008084Y009793D01*
X008126Y009784D01*
X008168Y009770D01*
X008208Y009754D01*
X008246Y009733D01*
X008283Y009709D01*
X008317Y009683D01*
X008349Y009653D01*
X008378Y009620D01*
X008404Y009585D01*
X008427Y009548D01*
X008446Y009509D01*
X008462Y009469D01*
X008475Y009427D01*
X008483Y009384D01*
X008488Y009341D01*
X008489Y009297D01*
X008486Y009254D01*
X008479Y009211D01*
X008469Y009169D01*
X008454Y009128D01*
X008436Y009088D01*
X008415Y009050D01*
X008391Y009014D01*
X000517Y001140D01*
X000516Y001139D02*
X000492Y001103D01*
X000471Y001065D01*
X000453Y001025D01*
X000438Y000984D01*
X000428Y000942D01*
X000421Y000899D01*
X000418Y000856D01*
X000419Y000812D01*
X000424Y000769D01*
X000432Y000726D01*
X000445Y000684D01*
X000461Y000644D01*
X000480Y000605D01*
X000503Y000568D01*
X000529Y000533D01*
X000558Y000500D01*
X000590Y000470D01*
X000624Y000444D01*
X000661Y000420D01*
X000699Y000399D01*
X000739Y000383D01*
X000781Y000369D01*
X000823Y000360D01*
X000866Y000354D01*
X000910Y000352D01*
M02*
