G75*
G70*
%OFA0B0*%
%FSLAX24Y24*%
%IPPOS*%
%LPD*%
%AMOC8*
5,1,8,0,0,1.08239X$1,22.5*
%
%ADD10C,0.0100*%
%ADD11C,0.0040*%
D10*
X000592Y000502D02*
X000542Y000561D01*
X000504Y000628D01*
X000480Y000700D01*
X000470Y000777D01*
X000475Y000853D01*
X000494Y000927D01*
X000528Y000997D01*
X000573Y001058D01*
X000630Y001110D01*
X003390Y003870D01*
X003479Y003956D01*
X003580Y004028D01*
X003691Y004082D01*
X003810Y004118D01*
X003933Y004135D01*
X004057Y004132D01*
X004178Y004110D01*
X004295Y004069D01*
X004404Y004010D01*
X004502Y003935D01*
X004587Y003844D01*
X004657Y003742D01*
X004710Y003630D01*
X004620Y003448D01*
X004507Y003279D01*
X004373Y003127D01*
X004221Y002993D01*
X004052Y002880D01*
X003870Y002790D01*
X003748Y002698D01*
X003639Y002590D01*
X003546Y002469D01*
X003471Y002336D01*
X003414Y002194D01*
X003377Y002046D01*
X003361Y001894D01*
X003365Y001741D01*
X003390Y001590D01*
X003166Y001324D01*
X002913Y001086D01*
X002633Y000879D01*
X002332Y000706D01*
X002013Y000569D01*
X001679Y000470D01*
X001337Y000410D01*
X000990Y000390D01*
X000870Y000390D01*
X000794Y000397D01*
X000720Y000419D01*
X000652Y000455D01*
X000592Y000502D01*
X000551Y000551D02*
X001952Y000551D01*
X002200Y000650D02*
X000497Y000650D01*
X000474Y000748D02*
X002405Y000748D01*
X002576Y000847D02*
X000475Y000847D01*
X000503Y000945D02*
X002722Y000945D01*
X002855Y001044D02*
X000562Y001044D01*
X000662Y001142D02*
X002972Y001142D01*
X003077Y001241D02*
X000761Y001241D01*
X000859Y001339D02*
X003178Y001339D01*
X003261Y001438D02*
X000958Y001438D01*
X001056Y001536D02*
X003344Y001536D01*
X003383Y001635D02*
X001155Y001635D01*
X001253Y001733D02*
X003366Y001733D01*
X003362Y001832D02*
X001352Y001832D01*
X001450Y001930D02*
X003364Y001930D01*
X003375Y002029D02*
X001549Y002029D01*
X001647Y002127D02*
X003397Y002127D01*
X003427Y002226D02*
X001746Y002226D01*
X001844Y002324D02*
X003466Y002324D01*
X003520Y002423D02*
X001943Y002423D01*
X002041Y002521D02*
X003586Y002521D01*
X003669Y002620D02*
X002140Y002620D01*
X002238Y002718D02*
X003774Y002718D01*
X003924Y002817D02*
X002337Y002817D01*
X002435Y002915D02*
X004104Y002915D01*
X004244Y003014D02*
X002534Y003014D01*
X002632Y003112D02*
X004356Y003112D01*
X004446Y003211D02*
X002731Y003211D01*
X002829Y003309D02*
X004527Y003309D01*
X004593Y003408D02*
X002928Y003408D01*
X003026Y003506D02*
X004649Y003506D01*
X004697Y003605D02*
X003125Y003605D01*
X003223Y003703D02*
X004676Y003703D01*
X004617Y003802D02*
X003322Y003802D01*
X003421Y003900D02*
X004535Y003900D01*
X004419Y003999D02*
X003539Y003999D01*
X003741Y004097D02*
X004216Y004097D01*
X001581Y000453D02*
X000656Y000453D01*
X002354Y009877D02*
X002280Y009899D01*
X002212Y009935D01*
X002152Y009982D01*
X002102Y010041D01*
X002064Y010108D01*
X002040Y010180D01*
X002030Y010257D01*
X002035Y010333D01*
X002054Y010407D01*
X002088Y010477D01*
X002133Y010538D01*
X002190Y010590D01*
X006870Y015270D01*
X006916Y015307D01*
X006969Y015335D01*
X007026Y015350D01*
X007085Y015354D01*
X007144Y015346D01*
X007200Y015326D01*
X007250Y015294D01*
X007293Y015254D01*
X007327Y015205D01*
X007350Y015150D01*
X007230Y015030D01*
X007251Y014840D01*
X007244Y014648D01*
X007210Y014460D01*
X007150Y014278D01*
X007065Y014107D01*
X006956Y013950D01*
X006826Y013809D01*
X006677Y013689D01*
X006512Y013591D01*
X006335Y013518D01*
X006150Y013470D01*
X006147Y013497D01*
X006138Y013522D01*
X006124Y013545D01*
X006105Y013564D01*
X006082Y013578D01*
X006057Y013587D01*
X006030Y013590D01*
X006089Y013608D01*
X006150Y013614D01*
X006211Y013608D01*
X006270Y013590D01*
X006199Y013502D01*
X006142Y013404D01*
X006101Y013299D01*
X006077Y013189D01*
X006070Y013076D01*
X006080Y012964D01*
X006107Y012854D01*
X006150Y012750D01*
X006179Y012662D01*
X006192Y012570D01*
X006190Y012477D01*
X006172Y012386D01*
X006138Y012300D01*
X006091Y012220D01*
X006030Y012150D01*
X005732Y012004D01*
X005453Y011825D01*
X005195Y011615D01*
X004964Y011377D01*
X004761Y011114D01*
X004590Y010830D01*
X004396Y010611D01*
X004179Y010416D01*
X003940Y010248D01*
X003684Y010109D01*
X003413Y010000D01*
X003131Y009923D01*
X002842Y009880D01*
X002550Y009870D01*
X002430Y009870D01*
X002354Y009877D01*
X002262Y009909D02*
X003033Y009909D01*
X003430Y010007D02*
X002131Y010007D01*
X002066Y010106D02*
X003676Y010106D01*
X003859Y010204D02*
X002037Y010204D01*
X002033Y010303D02*
X004017Y010303D01*
X004157Y010401D02*
X002053Y010401D01*
X002105Y010500D02*
X004272Y010500D01*
X004382Y010598D02*
X002198Y010598D01*
X002297Y010697D02*
X004472Y010697D01*
X004559Y010795D02*
X002395Y010795D01*
X002494Y010894D02*
X004628Y010894D01*
X004688Y010992D02*
X002592Y010992D01*
X002691Y011091D02*
X004747Y011091D01*
X004819Y011189D02*
X002789Y011189D01*
X002888Y011288D02*
X004895Y011288D01*
X004973Y011386D02*
X002986Y011386D01*
X003085Y011485D02*
X005069Y011485D01*
X005164Y011583D02*
X003183Y011583D01*
X003282Y011682D02*
X005277Y011682D01*
X005398Y011780D02*
X003380Y011780D01*
X003479Y011879D02*
X005536Y011879D01*
X005690Y011977D02*
X003577Y011977D01*
X003676Y012076D02*
X005878Y012076D01*
X006051Y012174D02*
X003774Y012174D01*
X003873Y012273D02*
X006122Y012273D01*
X006166Y012371D02*
X003971Y012371D01*
X004070Y012470D02*
X006188Y012470D01*
X006192Y012568D02*
X004168Y012568D01*
X004267Y012667D02*
X006177Y012667D01*
X006144Y012765D02*
X004365Y012765D01*
X004464Y012864D02*
X006104Y012864D01*
X006080Y012962D02*
X004562Y012962D01*
X004661Y013061D02*
X006071Y013061D01*
X006075Y013159D02*
X004759Y013159D01*
X004858Y013258D02*
X006092Y013258D01*
X006124Y013356D02*
X004956Y013356D01*
X005055Y013455D02*
X006172Y013455D01*
X006116Y013553D02*
X005153Y013553D01*
X005252Y013652D02*
X006614Y013652D01*
X006752Y013750D02*
X005350Y013750D01*
X005449Y013849D02*
X006862Y013849D01*
X006953Y013947D02*
X005547Y013947D01*
X005646Y014046D02*
X007022Y014046D01*
X007083Y014144D02*
X005744Y014144D01*
X005843Y014243D02*
X007132Y014243D01*
X007171Y014341D02*
X005941Y014341D01*
X006040Y014440D02*
X007204Y014440D01*
X007224Y014538D02*
X006138Y014538D01*
X006237Y014637D02*
X007242Y014637D01*
X007247Y014735D02*
X006335Y014735D01*
X006434Y014834D02*
X007251Y014834D01*
X007241Y014932D02*
X006532Y014932D01*
X006631Y015031D02*
X007231Y015031D01*
X007329Y015129D02*
X006729Y015129D01*
X006828Y015228D02*
X007311Y015228D01*
X007199Y015326D02*
X006952Y015326D01*
X006421Y013553D02*
X006240Y013553D01*
X006390Y019710D02*
X006314Y019717D01*
X006240Y019739D01*
X006172Y019775D01*
X006112Y019822D01*
X006062Y019881D01*
X006024Y019948D01*
X006000Y020020D01*
X005990Y020097D01*
X005995Y020173D01*
X006014Y020247D01*
X006048Y020317D01*
X006093Y020378D01*
X006150Y020430D01*
X014899Y029179D01*
X014945Y029216D01*
X014997Y029243D01*
X015055Y029259D01*
X015114Y029263D01*
X015173Y029255D01*
X015228Y029234D01*
X015279Y029203D01*
X015322Y029162D01*
X015356Y029113D01*
X015379Y029059D01*
X015694Y027758D01*
X015599Y027577D01*
X015482Y027410D01*
X015344Y027260D01*
X015188Y027130D01*
X015016Y027020D01*
X014831Y026935D01*
X014636Y026874D01*
X014436Y026839D01*
X014232Y026830D01*
X014029Y026848D01*
X013830Y026893D01*
X013639Y026963D01*
X013697Y026992D01*
X013748Y027031D01*
X013791Y027080D01*
X013823Y027137D01*
X013843Y027198D01*
X013852Y027263D01*
X013847Y027327D01*
X013830Y027390D01*
X013830Y027270D01*
X013812Y026947D01*
X013758Y026629D01*
X013669Y026318D01*
X013546Y026019D01*
X013391Y025736D01*
X013204Y025472D01*
X012990Y025230D01*
X012845Y025099D01*
X012686Y024984D01*
X012516Y024887D01*
X012337Y024808D01*
X012150Y024750D01*
X011926Y024678D01*
X011712Y024579D01*
X011511Y024455D01*
X011328Y024307D01*
X011164Y024138D01*
X011022Y023950D01*
X010904Y023746D01*
X010812Y023529D01*
X010747Y023303D01*
X010710Y023070D01*
X010674Y022852D01*
X010610Y022640D01*
X010518Y022439D01*
X010401Y022252D01*
X010259Y022082D01*
X010096Y021932D01*
X009915Y021806D01*
X009718Y021704D01*
X009510Y021630D01*
X009179Y021515D01*
X008862Y021363D01*
X008566Y021176D01*
X008293Y020956D01*
X008046Y020706D01*
X007830Y020430D01*
X007691Y020256D01*
X007531Y020102D01*
X007351Y019970D01*
X007156Y019864D01*
X006948Y019784D01*
X006731Y019732D01*
X006510Y019710D01*
X006390Y019710D01*
X006203Y019759D02*
X006841Y019759D01*
X007138Y019857D02*
X006082Y019857D01*
X006022Y019956D02*
X007324Y019956D01*
X007465Y020054D02*
X005996Y020054D01*
X005994Y020153D02*
X007583Y020153D01*
X007686Y020251D02*
X006016Y020251D01*
X006072Y020350D02*
X007766Y020350D01*
X007844Y020448D02*
X006168Y020448D01*
X006267Y020547D02*
X007921Y020547D01*
X007998Y020645D02*
X006365Y020645D01*
X006464Y020744D02*
X008083Y020744D01*
X008180Y020842D02*
X006562Y020842D01*
X006661Y020941D02*
X008277Y020941D01*
X008396Y021039D02*
X006759Y021039D01*
X006858Y021138D02*
X008518Y021138D01*
X008661Y021236D02*
X006956Y021236D01*
X007055Y021335D02*
X008817Y021335D01*
X009008Y021433D02*
X007153Y021433D01*
X007252Y021532D02*
X009226Y021532D01*
X009510Y021630D02*
X007350Y021630D01*
X007449Y021729D02*
X009765Y021729D01*
X009945Y021827D02*
X007547Y021827D01*
X007646Y021926D02*
X010086Y021926D01*
X010196Y022024D02*
X007744Y022024D01*
X007843Y022123D02*
X010293Y022123D01*
X010375Y022221D02*
X007941Y022221D01*
X008040Y022320D02*
X010443Y022320D01*
X010505Y022418D02*
X008138Y022418D01*
X008237Y022517D02*
X010554Y022517D01*
X010599Y022615D02*
X008335Y022615D01*
X008434Y022714D02*
X010632Y022714D01*
X010662Y022812D02*
X008532Y022812D01*
X008631Y022911D02*
X010684Y022911D01*
X010700Y023009D02*
X008729Y023009D01*
X008828Y023108D02*
X010716Y023108D01*
X010731Y023206D02*
X008926Y023206D01*
X009025Y023305D02*
X010747Y023305D01*
X010775Y023403D02*
X009123Y023403D01*
X009222Y023502D02*
X010804Y023502D01*
X010842Y023600D02*
X009320Y023600D01*
X009419Y023699D02*
X010884Y023699D01*
X010933Y023797D02*
X009517Y023797D01*
X009616Y023896D02*
X010990Y023896D01*
X011055Y023994D02*
X009714Y023994D01*
X009813Y024093D02*
X011130Y024093D01*
X011215Y024191D02*
X009911Y024191D01*
X010010Y024290D02*
X011311Y024290D01*
X011428Y024388D02*
X010108Y024388D01*
X010207Y024487D02*
X011562Y024487D01*
X011724Y024585D02*
X010305Y024585D01*
X010404Y024684D02*
X011943Y024684D01*
X012253Y024782D02*
X010502Y024782D01*
X010601Y024881D02*
X012503Y024881D01*
X012678Y024979D02*
X010699Y024979D01*
X010798Y025078D02*
X012816Y025078D01*
X012930Y025176D02*
X010896Y025176D01*
X010995Y025275D02*
X013030Y025275D01*
X013117Y025373D02*
X011093Y025373D01*
X011192Y025472D02*
X013204Y025472D01*
X013274Y025570D02*
X011290Y025570D01*
X011389Y025669D02*
X013343Y025669D01*
X013408Y025767D02*
X011487Y025767D01*
X011586Y025866D02*
X013462Y025866D01*
X013489Y025964D02*
X012526Y025964D01*
X012570Y025948D02*
X012379Y026018D01*
X012628Y026057D01*
X012869Y026129D01*
X013099Y026232D01*
X013314Y026364D01*
X013510Y026522D01*
X013683Y026705D01*
X013831Y026909D01*
X013951Y027131D01*
X014041Y027366D01*
X014100Y027611D01*
X014126Y027862D01*
X014119Y028114D01*
X014434Y026813D01*
X014339Y026632D01*
X014222Y026465D01*
X014084Y026315D01*
X013928Y026185D01*
X013756Y026075D01*
X013571Y025990D01*
X013377Y025929D01*
X013176Y025894D01*
X012972Y025885D01*
X012769Y025903D01*
X012570Y025948D01*
X012645Y026063D02*
X013728Y026063D01*
X013604Y026161D02*
X011881Y026161D01*
X011783Y026063D02*
X013564Y026063D01*
X013516Y025964D02*
X011684Y025964D01*
X011980Y026260D02*
X013645Y026260D01*
X013681Y026358D02*
X012078Y026358D01*
X012177Y026457D02*
X013709Y026457D01*
X013737Y026555D02*
X012275Y026555D01*
X012374Y026654D02*
X013762Y026654D01*
X013779Y026752D02*
X012472Y026752D01*
X012571Y026851D02*
X013796Y026851D01*
X013788Y026851D02*
X014425Y026851D01*
X014415Y026880D02*
X014667Y026964D01*
X014928Y027014D01*
X015194Y027030D01*
X015459Y027010D01*
X015719Y026957D01*
X015970Y026870D01*
X016208Y026750D01*
X016428Y026601D01*
X016626Y026425D01*
X016800Y026224D01*
X016946Y026002D01*
X017062Y025763D01*
X016590Y026670D01*
X016608Y026404D01*
X016661Y026143D01*
X016748Y025891D01*
X016866Y025652D01*
X017014Y025430D01*
X017190Y025230D01*
X017338Y024999D01*
X017510Y024784D01*
X017704Y024590D01*
X017919Y024418D01*
X018150Y024270D01*
X018418Y024225D01*
X018678Y024147D01*
X018927Y024039D01*
X019161Y023900D01*
X019376Y023734D01*
X019569Y023543D01*
X019737Y023330D01*
X019878Y023097D01*
X019990Y022850D01*
X020070Y022590D01*
X020041Y022502D01*
X020028Y022410D01*
X020030Y022317D01*
X020048Y022226D01*
X020082Y022140D01*
X020129Y022060D01*
X020190Y021990D01*
X020488Y021844D01*
X020767Y021665D01*
X021025Y021455D01*
X021256Y021217D01*
X021459Y020954D01*
X021630Y020670D01*
X021824Y020451D01*
X022041Y020256D01*
X022280Y020088D01*
X022536Y019949D01*
X022807Y019840D01*
X023089Y019763D01*
X023378Y019720D01*
X023670Y019710D01*
X023790Y019710D01*
X023866Y019717D01*
X023940Y019739D01*
X024008Y019775D01*
X024068Y019822D01*
X024118Y019881D01*
X024156Y019948D01*
X024180Y020020D01*
X024190Y020097D01*
X024185Y020173D01*
X024166Y020247D01*
X024132Y020317D01*
X024087Y020378D01*
X024030Y020430D01*
X015281Y029179D01*
X015235Y029216D01*
X015183Y029243D01*
X015125Y029259D01*
X015066Y029263D01*
X015007Y029255D01*
X014952Y029234D01*
X014901Y029203D01*
X014858Y029162D01*
X014824Y029113D01*
X014801Y029059D01*
X015510Y028230D01*
X015337Y028199D01*
X015171Y028145D01*
X015014Y028067D01*
X014869Y027967D01*
X014741Y027848D01*
X014630Y027712D01*
X014540Y027561D01*
X014473Y027399D01*
X014429Y027230D01*
X014409Y027055D01*
X014415Y026880D01*
X014667Y026964D01*
X014928Y027014D01*
X015194Y027030D01*
X015459Y027010D01*
X015719Y026957D01*
X015970Y026870D01*
X016208Y026750D01*
X016428Y026601D01*
X016626Y026425D01*
X016800Y026224D01*
X016946Y026002D01*
X017062Y025763D01*
X016590Y026670D01*
X016608Y026404D01*
X016661Y026143D01*
X016748Y025891D01*
X016866Y025652D01*
X017014Y025430D01*
X017190Y025230D01*
X017338Y024999D01*
X017510Y024784D01*
X017704Y024590D01*
X017919Y024418D01*
X018150Y024270D01*
X018418Y024225D01*
X018678Y024147D01*
X018927Y024039D01*
X019161Y023900D01*
X019376Y023734D01*
X019569Y023543D01*
X019737Y023330D01*
X019878Y023097D01*
X019990Y022850D01*
X020070Y022590D01*
X020041Y022502D01*
X020028Y022410D01*
X020030Y022317D01*
X020048Y022226D01*
X020082Y022140D01*
X020129Y022060D01*
X020190Y021990D01*
X020488Y021844D01*
X020767Y021665D01*
X021025Y021455D01*
X021256Y021217D01*
X021459Y020954D01*
X021630Y020670D01*
X021824Y020451D01*
X022041Y020256D01*
X022280Y020088D01*
X022536Y019949D01*
X022807Y019840D01*
X023089Y019763D01*
X023378Y019720D01*
X023670Y019710D01*
X023790Y019710D01*
X023866Y019717D01*
X023940Y019739D01*
X024008Y019775D01*
X024068Y019822D01*
X024118Y019881D01*
X024156Y019948D01*
X024180Y020020D01*
X024190Y020097D01*
X024185Y020173D01*
X024166Y020247D01*
X024132Y020317D01*
X024087Y020378D01*
X024030Y020430D01*
X015281Y029179D01*
X015235Y029216D01*
X015183Y029243D01*
X015125Y029259D01*
X015066Y029263D01*
X015007Y029255D01*
X014952Y029234D01*
X014901Y029203D01*
X014858Y029162D01*
X014824Y029113D01*
X014801Y029059D01*
X015510Y028230D01*
X015337Y028199D01*
X015171Y028145D01*
X015014Y028067D01*
X014869Y027967D01*
X014741Y027848D01*
X014630Y027712D01*
X014540Y027561D01*
X014473Y027399D01*
X014429Y027230D01*
X014409Y027055D01*
X014415Y026880D01*
X014413Y026949D02*
X014623Y026949D01*
X014413Y026949D01*
X014401Y026949D02*
X013852Y026949D01*
X013812Y026949D02*
X014862Y026949D01*
X015059Y027048D02*
X013818Y027048D01*
X013762Y027048D02*
X012768Y027048D01*
X012866Y027146D02*
X013823Y027146D01*
X013826Y027146D02*
X015208Y027146D01*
X015325Y027245D02*
X013849Y027245D01*
X013829Y027245D02*
X012965Y027245D01*
X013063Y027343D02*
X013830Y027343D01*
X013843Y027343D02*
X015420Y027343D01*
X015504Y027442D02*
X013162Y027442D01*
X013260Y027540D02*
X015573Y027540D01*
X015631Y027639D02*
X013359Y027639D01*
X013457Y027737D02*
X015683Y027737D01*
X015675Y027836D02*
X013556Y027836D01*
X013654Y027934D02*
X015651Y027934D01*
X015627Y028033D02*
X013753Y028033D01*
X013851Y028131D02*
X015603Y028131D01*
X015579Y028230D02*
X013950Y028230D01*
X014048Y028328D02*
X015556Y028328D01*
X015532Y028427D02*
X014147Y028427D01*
X014245Y028525D02*
X015508Y028525D01*
X015484Y028624D02*
X014344Y028624D01*
X014442Y028722D02*
X015460Y028722D01*
X015436Y028821D02*
X014541Y028821D01*
X014639Y028919D02*
X015412Y028919D01*
X015389Y029018D02*
X014738Y029018D01*
X014836Y029018D02*
X015442Y029018D01*
X014836Y029018D01*
X014836Y029116D02*
X015354Y029116D01*
X015344Y029116D02*
X014826Y029116D01*
X015344Y029116D01*
X015260Y029215D02*
X014943Y029215D01*
X014920Y029215D02*
X015237Y029215D01*
X014920Y029215D01*
X014921Y028919D02*
X015541Y028919D01*
X014921Y028919D01*
X015005Y028821D02*
X015639Y028821D01*
X015005Y028821D01*
X015089Y028722D02*
X015738Y028722D01*
X015089Y028722D01*
X015173Y028624D02*
X015836Y028624D01*
X015173Y028624D01*
X015258Y028525D02*
X015935Y028525D01*
X015258Y028525D01*
X015342Y028427D02*
X016033Y028427D01*
X015342Y028427D01*
X015426Y028328D02*
X016132Y028328D01*
X015426Y028328D01*
X015508Y028230D02*
X016230Y028230D01*
X015508Y028230D01*
X015144Y028131D02*
X016329Y028131D01*
X015144Y028131D01*
X014964Y028033D02*
X016427Y028033D01*
X014964Y028033D01*
X014834Y027934D02*
X016526Y027934D01*
X014834Y027934D01*
X014731Y027836D02*
X016624Y027836D01*
X014731Y027836D01*
X014651Y027737D02*
X016723Y027737D01*
X014651Y027737D01*
X014587Y027639D02*
X016821Y027639D01*
X014587Y027639D01*
X014531Y027540D02*
X016920Y027540D01*
X014531Y027540D01*
X014490Y027442D02*
X017018Y027442D01*
X014490Y027442D01*
X014458Y027343D02*
X017117Y027343D01*
X014458Y027343D01*
X014433Y027245D02*
X017215Y027245D01*
X014433Y027245D01*
X014420Y027146D02*
X017314Y027146D01*
X014420Y027146D01*
X014353Y027146D02*
X013957Y027146D01*
X013994Y027245D02*
X014329Y027245D01*
X014305Y027343D02*
X014032Y027343D01*
X014059Y027442D02*
X014282Y027442D01*
X014258Y027540D02*
X014083Y027540D01*
X014102Y027639D02*
X014234Y027639D01*
X014210Y027737D02*
X014113Y027737D01*
X014123Y027836D02*
X014186Y027836D01*
X014162Y027934D02*
X014124Y027934D01*
X014121Y028033D02*
X014138Y028033D01*
X013906Y027048D02*
X014377Y027048D01*
X014410Y027048D02*
X017412Y027048D01*
X014410Y027048D01*
X014505Y026851D02*
X014018Y026851D01*
X013717Y026752D02*
X014402Y026752D01*
X014351Y026654D02*
X013634Y026654D01*
X013541Y026555D02*
X014285Y026555D01*
X014214Y026457D02*
X013429Y026457D01*
X013305Y026358D02*
X014124Y026358D01*
X014018Y026260D02*
X013144Y026260D01*
X012941Y026161D02*
X013891Y026161D01*
X013676Y026949D02*
X012669Y026949D01*
X015741Y026949D02*
X017511Y026949D01*
X015741Y026949D01*
X016008Y026851D02*
X017609Y026851D01*
X016008Y026851D01*
X016205Y026752D02*
X017708Y026752D01*
X016205Y026752D01*
X016351Y026654D02*
X016591Y026654D01*
X016351Y026654D01*
X016480Y026555D02*
X016598Y026555D01*
X016480Y026555D01*
X016591Y026457D02*
X016605Y026457D01*
X016591Y026457D01*
X016618Y026358D02*
X016684Y026358D01*
X016618Y026358D01*
X016638Y026260D02*
X016769Y026260D01*
X016638Y026260D01*
X016658Y026161D02*
X016842Y026161D01*
X016658Y026161D01*
X016689Y026063D02*
X016906Y026063D01*
X016689Y026063D01*
X016722Y025964D02*
X016958Y025964D01*
X016722Y025964D01*
X016760Y025866D02*
X017009Y025866D01*
X016760Y025866D01*
X016809Y025767D02*
X017060Y025767D01*
X016809Y025767D01*
X016858Y025669D02*
X018791Y025669D01*
X016858Y025669D01*
X016921Y025570D02*
X018890Y025570D01*
X016921Y025570D01*
X016987Y025472D02*
X018988Y025472D01*
X016987Y025472D01*
X017064Y025373D02*
X019087Y025373D01*
X017064Y025373D01*
X017151Y025275D02*
X019185Y025275D01*
X017151Y025275D01*
X017224Y025176D02*
X019284Y025176D01*
X017224Y025176D01*
X017288Y025078D02*
X019382Y025078D01*
X017288Y025078D01*
X017354Y024979D02*
X019481Y024979D01*
X017354Y024979D01*
X017433Y024881D02*
X019579Y024881D01*
X017433Y024881D01*
X017513Y024782D02*
X019678Y024782D01*
X017513Y024782D01*
X017611Y024684D02*
X019776Y024684D01*
X017611Y024684D01*
X017711Y024585D02*
X019875Y024585D01*
X017711Y024585D01*
X017833Y024487D02*
X019973Y024487D01*
X017833Y024487D01*
X017965Y024388D02*
X020072Y024388D01*
X017965Y024388D01*
X018119Y024290D02*
X020170Y024290D01*
X018119Y024290D01*
X018532Y024191D02*
X020269Y024191D01*
X018532Y024191D01*
X018804Y024093D02*
X020367Y024093D01*
X018804Y024093D01*
X019002Y023994D02*
X020466Y023994D01*
X019002Y023994D01*
X019167Y023896D02*
X020564Y023896D01*
X019167Y023896D01*
X019294Y023797D02*
X020663Y023797D01*
X019294Y023797D01*
X019412Y023699D02*
X020761Y023699D01*
X019412Y023699D01*
X019511Y023600D02*
X020860Y023600D01*
X019511Y023600D01*
X019602Y023502D02*
X020958Y023502D01*
X019602Y023502D01*
X019680Y023403D02*
X021057Y023403D01*
X019680Y023403D01*
X019753Y023305D02*
X021155Y023305D01*
X019753Y023305D01*
X019812Y023206D02*
X021254Y023206D01*
X019812Y023206D01*
X019872Y023108D02*
X021352Y023108D01*
X019872Y023108D01*
X019918Y023009D02*
X021451Y023009D01*
X019918Y023009D01*
X019962Y022911D02*
X021549Y022911D01*
X019962Y022911D01*
X020001Y022812D02*
X021648Y022812D01*
X020001Y022812D01*
X020032Y022714D02*
X021746Y022714D01*
X020032Y022714D01*
X020062Y022615D02*
X021845Y022615D01*
X020062Y022615D01*
X020046Y022517D02*
X021943Y022517D01*
X020046Y022517D01*
X020029Y022418D02*
X022042Y022418D01*
X020029Y022418D01*
X020030Y022320D02*
X022140Y022320D01*
X020030Y022320D01*
X020050Y022221D02*
X022239Y022221D01*
X020050Y022221D01*
X020092Y022123D02*
X022337Y022123D01*
X020092Y022123D01*
X020161Y022024D02*
X022436Y022024D01*
X020161Y022024D01*
X020322Y021926D02*
X022534Y021926D01*
X020322Y021926D01*
X020514Y021827D02*
X022633Y021827D01*
X020514Y021827D01*
X020668Y021729D02*
X022731Y021729D01*
X020668Y021729D01*
X020810Y021630D02*
X022830Y021630D01*
X020810Y021630D01*
X020931Y021532D02*
X022928Y021532D01*
X020931Y021532D01*
X021046Y021433D02*
X023027Y021433D01*
X021046Y021433D01*
X021142Y021335D02*
X023125Y021335D01*
X021142Y021335D01*
X021238Y021236D02*
X023224Y021236D01*
X021238Y021236D01*
X021317Y021138D02*
X023322Y021138D01*
X021317Y021138D01*
X021393Y021039D02*
X023421Y021039D01*
X021393Y021039D01*
X021467Y020941D02*
X023519Y020941D01*
X021467Y020941D01*
X021526Y020842D02*
X023618Y020842D01*
X021526Y020842D01*
X021586Y020744D02*
X023716Y020744D01*
X021586Y020744D01*
X021652Y020645D02*
X023815Y020645D01*
X021652Y020645D01*
X021739Y020547D02*
X023913Y020547D01*
X021739Y020547D01*
X021827Y020448D02*
X024012Y020448D01*
X021827Y020448D01*
X021937Y020350D02*
X024108Y020350D01*
X021937Y020350D01*
X022049Y020251D02*
X024164Y020251D01*
X022049Y020251D01*
X022188Y020153D02*
X024186Y020153D01*
X022188Y020153D01*
X022343Y020054D02*
X024184Y020054D01*
X022343Y020054D01*
X022524Y019956D02*
X024158Y019956D01*
X022524Y019956D01*
X022765Y019857D02*
X024098Y019857D01*
X022765Y019857D01*
X023120Y019759D02*
X023977Y019759D01*
X023120Y019759D01*
X023095Y015354D02*
X023036Y015346D01*
X022980Y015326D01*
X022930Y015294D01*
X022887Y015254D01*
X022853Y015205D01*
X022830Y015150D01*
X022950Y015030D01*
X022946Y014841D01*
X022970Y014653D01*
X023019Y014471D01*
X023095Y014297D01*
X023194Y014136D01*
X023315Y013991D01*
X023455Y013864D01*
X023612Y013759D01*
X023783Y013677D01*
X023963Y013621D01*
X024150Y013590D01*
X024256Y013199D01*
X024405Y012823D01*
X024595Y012466D01*
X024823Y012132D01*
X025088Y011825D01*
X025384Y011550D01*
X025710Y011310D01*
X025865Y011040D01*
X026050Y010790D01*
X026262Y010564D01*
X026500Y010363D01*
X026759Y010191D01*
X027036Y010050D01*
X027328Y009943D01*
X027630Y009870D01*
X027750Y009870D01*
X027826Y009877D01*
X027900Y009899D01*
X027968Y009935D01*
X028028Y009982D01*
X028078Y010041D01*
X028116Y010108D01*
X028140Y010180D01*
X028150Y010257D01*
X028145Y010333D01*
X028126Y010407D01*
X028092Y010477D01*
X028047Y010538D01*
X027990Y010590D01*
X023310Y015270D01*
X023264Y015307D01*
X023211Y015335D01*
X023154Y015350D01*
X023095Y015354D01*
X022981Y015326D02*
X023228Y015326D01*
X023352Y015228D02*
X022869Y015228D01*
X022851Y015129D02*
X023451Y015129D01*
X023549Y015031D02*
X022949Y015031D01*
X022948Y014932D02*
X023648Y014932D01*
X023746Y014834D02*
X022947Y014834D01*
X022960Y014735D02*
X023845Y014735D01*
X023943Y014637D02*
X022974Y014637D01*
X023001Y014538D02*
X024042Y014538D01*
X024140Y014440D02*
X023033Y014440D01*
X023076Y014341D02*
X024239Y014341D01*
X024337Y014243D02*
X023128Y014243D01*
X023189Y014144D02*
X024436Y014144D01*
X024534Y014046D02*
X023269Y014046D01*
X023364Y013947D02*
X024633Y013947D01*
X024731Y013849D02*
X023479Y013849D01*
X023631Y013750D02*
X024830Y013750D01*
X024928Y013652D02*
X023865Y013652D01*
X024160Y013553D02*
X025027Y013553D01*
X025125Y013455D02*
X024187Y013455D01*
X024214Y013356D02*
X025224Y013356D01*
X025322Y013258D02*
X024240Y013258D01*
X024272Y013159D02*
X025421Y013159D01*
X025519Y013061D02*
X024311Y013061D01*
X024350Y012962D02*
X025618Y012962D01*
X025716Y012864D02*
X024389Y012864D01*
X024436Y012765D02*
X025815Y012765D01*
X025913Y012667D02*
X024488Y012667D01*
X024541Y012568D02*
X026012Y012568D01*
X026110Y012470D02*
X024593Y012470D01*
X024660Y012371D02*
X026209Y012371D01*
X026307Y012273D02*
X024727Y012273D01*
X024795Y012174D02*
X026406Y012174D01*
X026504Y012076D02*
X024872Y012076D01*
X024957Y011977D02*
X026603Y011977D01*
X026701Y011879D02*
X025042Y011879D01*
X025137Y011780D02*
X026800Y011780D01*
X026898Y011682D02*
X025243Y011682D01*
X025349Y011583D02*
X026997Y011583D01*
X027095Y011485D02*
X025474Y011485D01*
X025607Y011386D02*
X027194Y011386D01*
X027292Y011288D02*
X025723Y011288D01*
X025779Y011189D02*
X027391Y011189D01*
X027489Y011091D02*
X025836Y011091D01*
X025900Y010992D02*
X027588Y010992D01*
X027686Y010894D02*
X025973Y010894D01*
X026046Y010795D02*
X027785Y010795D01*
X027883Y010697D02*
X026138Y010697D01*
X026230Y010598D02*
X027982Y010598D01*
X028075Y010500D02*
X026338Y010500D01*
X026454Y010401D02*
X028127Y010401D01*
X028147Y010303D02*
X026591Y010303D01*
X026739Y010204D02*
X028143Y010204D01*
X028114Y010106D02*
X026927Y010106D01*
X027154Y010007D02*
X028049Y010007D01*
X027918Y009909D02*
X027470Y009909D01*
X026370Y004118D02*
X026247Y004135D01*
X026123Y004132D01*
X026002Y004110D01*
X025885Y004069D01*
X025776Y004010D01*
X025678Y003935D01*
X025593Y003844D01*
X025523Y003742D01*
X025470Y003630D01*
X025560Y003448D01*
X025673Y003279D01*
X025807Y003127D01*
X025959Y002993D01*
X026128Y002880D01*
X026310Y002790D01*
X026432Y002698D01*
X026541Y002590D01*
X026634Y002469D01*
X026709Y002336D01*
X026766Y002194D01*
X026803Y002046D01*
X026819Y001894D01*
X026815Y001741D01*
X026790Y001590D01*
X027014Y001324D01*
X027267Y001086D01*
X027547Y000879D01*
X027848Y000706D01*
X028167Y000569D01*
X028501Y000470D01*
X028843Y000410D01*
X029190Y000390D01*
X029310Y000390D01*
X029386Y000397D01*
X029460Y000419D01*
X029528Y000455D01*
X029588Y000502D01*
X029638Y000561D01*
X029676Y000628D01*
X029700Y000700D01*
X029710Y000777D01*
X029705Y000853D01*
X029686Y000927D01*
X029652Y000997D01*
X029607Y001058D01*
X029550Y001110D01*
X026790Y003870D01*
X026701Y003956D01*
X026600Y004028D01*
X026489Y004082D01*
X026370Y004118D01*
X026439Y004097D02*
X025964Y004097D01*
X025761Y003999D02*
X026641Y003999D01*
X026759Y003900D02*
X025645Y003900D01*
X025563Y003802D02*
X026858Y003802D01*
X026957Y003703D02*
X025504Y003703D01*
X025483Y003605D02*
X027055Y003605D01*
X027154Y003506D02*
X025531Y003506D01*
X025587Y003408D02*
X027252Y003408D01*
X027351Y003309D02*
X025653Y003309D01*
X025734Y003211D02*
X027449Y003211D01*
X027548Y003112D02*
X025824Y003112D01*
X025936Y003014D02*
X027646Y003014D01*
X027745Y002915D02*
X026076Y002915D01*
X026256Y002817D02*
X027843Y002817D01*
X027942Y002718D02*
X026406Y002718D01*
X026511Y002620D02*
X028040Y002620D01*
X028139Y002521D02*
X026594Y002521D01*
X026660Y002423D02*
X028237Y002423D01*
X028336Y002324D02*
X026714Y002324D01*
X026753Y002226D02*
X028434Y002226D01*
X028533Y002127D02*
X026783Y002127D01*
X026805Y002029D02*
X028631Y002029D01*
X028730Y001930D02*
X026816Y001930D01*
X026818Y001832D02*
X028828Y001832D01*
X028927Y001733D02*
X026814Y001733D01*
X026797Y001635D02*
X029025Y001635D01*
X029124Y001536D02*
X026836Y001536D01*
X026919Y001438D02*
X029222Y001438D01*
X029321Y001339D02*
X027002Y001339D01*
X027103Y001241D02*
X029419Y001241D01*
X029518Y001142D02*
X027208Y001142D01*
X027325Y001044D02*
X029618Y001044D01*
X029677Y000945D02*
X027458Y000945D01*
X027604Y000847D02*
X029705Y000847D01*
X029706Y000748D02*
X027775Y000748D01*
X027980Y000650D02*
X029683Y000650D01*
X029629Y000551D02*
X028228Y000551D01*
X028599Y000453D02*
X029524Y000453D01*
X018693Y025767D02*
X017060Y025767D01*
X018693Y025767D01*
X018594Y025866D02*
X017013Y025866D01*
X018594Y025866D01*
X018496Y025964D02*
X016965Y025964D01*
X018496Y025964D01*
X018397Y026063D02*
X016906Y026063D01*
X018397Y026063D01*
X018299Y026161D02*
X016855Y026161D01*
X018299Y026161D01*
X018200Y026260D02*
X016804Y026260D01*
X018200Y026260D01*
X018102Y026358D02*
X016752Y026358D01*
X018102Y026358D01*
X018003Y026457D02*
X016701Y026457D01*
X018003Y026457D01*
X017905Y026555D02*
X016650Y026555D01*
X017905Y026555D01*
X017806Y026654D02*
X016599Y026654D01*
X017806Y026654D01*
D11*
X016831Y019354D02*
X016831Y019047D01*
X017061Y019277D01*
X016601Y019277D01*
X016677Y018893D02*
X016984Y018893D01*
X017061Y018817D01*
X017061Y018587D01*
X016601Y018587D01*
X016601Y018817D01*
X016677Y018893D01*
X016601Y018433D02*
X016907Y018433D01*
X017061Y018280D01*
X016907Y018126D01*
X016601Y018126D01*
X016831Y018126D02*
X016831Y018433D01*
X016831Y017973D02*
X016754Y017896D01*
X016754Y017666D01*
X016601Y017666D02*
X017061Y017666D01*
X017061Y017896D01*
X016984Y017973D01*
X016831Y017973D01*
X015261Y017896D02*
X015261Y017666D01*
X014801Y017666D01*
X014954Y017666D02*
X014954Y017896D01*
X015031Y017973D01*
X015184Y017973D01*
X015261Y017896D01*
X015107Y018126D02*
X015261Y018280D01*
X015107Y018433D01*
X014801Y018433D01*
X014801Y018587D02*
X014801Y018817D01*
X014877Y018893D01*
X015184Y018893D01*
X015261Y018817D01*
X015261Y018587D01*
X014801Y018587D01*
X015031Y018433D02*
X015031Y018126D01*
X015107Y018126D02*
X014801Y018126D01*
X014877Y019047D02*
X014801Y019124D01*
X014801Y019277D01*
X014877Y019354D01*
X015031Y019354D01*
X015107Y019277D01*
X015107Y019200D01*
X015031Y019047D01*
X015261Y019047D01*
X015261Y019354D01*
M02*
